{
  "accessors": [
    {
      "bufferView": 2,
      "componentType": 5126,
      "count": 4500,
      "max": [
        10.773942947387695,
        20.400402069091797,
        10.721168518066406
      ],
      "min": [
        -10.70648193359375,
        -1.1305828094482422,
        -10.721168518066406
      ],
      "type": "VEC3"
    },
    {
      "bufferView": 2,
      "byteOffset": 54000,
      "componentType": 5126,
      "count": 4500,
      "max": [
        0.99997156858444214,
        0.99999070167541504,
        1
      ],
      "min": [
        -0.99999493360519409,
        -0.99999064207077026,
        -1
      ],
      "type": "VEC3"
    },
    {
      "bufferView": 3,
      "componentType": 5126,
      "count": 4500,
      "max": [
        0.97266155481338501,
        1,
        1,
        1
      ],
      "min": [
        -0.88697969913482666,
        -1,
        -1,
        -1
      ],
      "type": "VEC4"
    },
    {
      "bufferView": 1,
      "componentType": 5126,
      "count": 4500,
      "max": [
        1,
        0.88846218585968018
      ],
      "min": [
        0,
        -2.9802322387695312e-08
      ],
      "type": "VEC2"
    },
    {
      "bufferView": 1,
      "byteOffset": 36000,
      "componentType": 5126,
      "count": 4500,
      "max": [
        1,
        0.88846218585968018
      ],
      "min": [
        0,
        -2.9802322387695312e-08
      ],
      "type": "VEC2"
    },
    {
      "bufferView": 0,
      "componentType": 5125,
      "count": 24888,
      "max": [
        4499
      ],
      "min": [
        0
      ],
      "type": "SCALAR"
    }
  ],
  "asset": {
    "extras": {
      "author": "Paolo Quijano (https://sketchfab.com/PQuijano)",
      "license": "CC-BY-4.0 (http://creativecommons.org/licenses/by/4.0/)",
      "source": "https://sketchfab.com/3d-models/bowling-ball-storm-hy-road-pearl-10a4ea0579d54a73965a308469bbb973",
      "title": "Bowling Ball Storm Hy-Road Pearl"
    },
    "generator": "Sketchfab-7.91.0",
    "version": "2.0"
  },
  "bufferViews": [
    {
      "buffer": 0,
      "byteLength": 99552,
      "byteOffset": 0,
      "name": "floatBufferViews",
      "target": 34963
    },
    {
      "buffer": 0,
      "byteLength": 72000,
      "byteOffset": 99552,
      "byteStride": 8,
      "name": "floatBufferViews",
      "target": 34962
    },
    {
      "buffer": 0,
      "byteLength": 108000,
      "byteOffset": 171552,
      "byteStride": 12,
      "name": "floatBufferViews",
      "target": 34962
    },
    {
      "buffer": 0,
      "byteLength": 72000,
      "byteOffset": 279552,
      "byteStride": 16,
      "name": "floatBufferViews",
      "target": 34962
    }
  ],
  "buffers": [
    {
      "byteLength": 351552,
      "uri": "scene.bin"
    }
  ],
  "images": [
    {
      "uri": "textures/StingrayPBS1_baseColor.png"
    },
    {
      "uri": "textures/StingrayPBS1_metallicRoughness.png"
    },
    {
      "uri": "textures/StingrayPBS1_normal.png"
    }
  ],
  "materials": [
    {
      "doubleSided": true,
      "name": "StingrayPBS1",
      "normalTexture": {
        "index": 2,
        "scale": 1,
        "texCoord": 0
      },
      "pbrMetallicRoughness": {
        "baseColorFactor": [
          1,
          1,
          1,
          1
        ],
        "baseColorTexture": {
          "index": 0,
          "texCoord": 0
        },
        "metallicFactor": 0,
        "metallicRoughnessTexture": {
          "index": 1,
          "texCoord": 0
        },
        "roughnessFactor": 1
      }
    }
  ],
  "meshes": [
    {
      "name": "Bowling_Ball_StingrayPBS1_0",
      "primitives": [
        {
          "attributes": {
            "NORMAL": 1,
            "POSITION": 0,
            "TANGENT": 2,
            "TEXCOORD_0": 3,
            "TEXCOORD_1": 4
          },
          "indices": 5,
          "material": 0,
          "mode": 4
        }
      ]
    }
  ],
  "nodes": [
    {
      "children": [
        1
      ],
      "name": "RootNode (gltf orientation matrix)",
      "rotation": [
        -0.70710678118654746,
        -0,
        -0,
        0.70710678118654757
      ]
    },
    {
      "children": [
        2
      ],
      "name": "RootNode (model correction matrix)"
    },
    {
      "children": [
        3
      ],
      "matrix": [
        1,
        0,
        0,
        0,
        0,
        0,
        1,
        0,
        0,
        -1,
        0,
        0,
        0,
        0,
        0,
        1
      ],
      "name": "079d3055b4744934969fff2a42b0c97b.fbx"
    },
    {
      "children": [
        4
      ],
      "name": "RootNode"
    },
    {
      "children": [
        5
      ],
      "matrix": [
        0.39370077848434448,
        0,
        0,
        0,
        0,
        0.39370077848434448,
        0,
        0,
        0,
        0,
        0.39370077848434448,
        0,
        0,
        -8.8817841970012523e-16,
        -9.4039548065783001e-38,
        1
      ],
      "name": "Bowling_Ball"
    },
    {
      "mesh": 0,
      "name": "Bowling_Ball_StingrayPBS1_0"
    }
  ],
  "samplers": [
    {
      "magFilter": 9729,
      "minFilter": 9987,
      "wrapS": 10497,
      "wrapT": 10497
    }
  ],
  "scene": 0,
  "scenes": [
    {
      "name": "OSG_Scene",
      "nodes": [
        0
      ]
    }
  ],
  "textures": [
    {
      "sampler": 0,
      "source": 0
    },
    {
      "sampler": 0,
      "source": 1
    },
    {
      "sampler": 0,
      "source": 2
    }
  ]
}

